<svg xmlns="http://www.w3.org/2000/svg" viewBox="0 0 200 200"><g fill="none" stroke="#111412" stroke-width="5"><circle cx="100" cy="100" r="77"/><circle cx="100" cy="100" r="65"/><path d="M139.00 100.00L171.00 100.00"/><path d="M136.03 114.92L165.60 127.17"/><path d="M127.58 127.58L150.20 150.20"/><path d="M114.92 136.03L127.17 165.60"/><path d="M100.00 139.00L100.00 171.00"/><path d="M85.08 136.03L72.83 165.60"/><path d="M72.42 127.58L49.80 150.20"/><path d="M63.97 114.92L34.40 127.17"/><path d="M61.00 100.00L29.00 100.00"/><path d="M63.97 85.08L34.40 72.83"/><path d="M72.42 72.42L49.80 49.80"/><path d="M85.08 63.97L72.83 34.40"/><path d="M100.00 61.00L100.00 29.00"/><path d="M114.92 63.97L127.17 34.40"/><path d="M127.58 72.42L150.20 49.80"/><path d="M136.03 85.08L165.60 72.83"/></g><g fill="#111412"><path d="M100 0 111 85 100 100 89 85Z"/><path d="M200 100 115 111 100 100 115 89Z"/><path d="M100 200 89 115 100 100 111 115Z"/><path d="M0 100 85 89 100 100 85 111Z"/></g><g fill="#eeeee7"><path d="M100 7 100 89 106 85Z"/><path d="M193 100 111 100 115 106Z"/><path d="M100 193 100 111 94 115Z"/><path d="M7 100 89 100 85 94Z"/></g><circle cx="100" cy="100" r="25" fill="#111412" stroke="#eeeee7" stroke-width="3"/></svg>